HIERARCHY
ROOT joint_Root
{
	OFFSET 0.0 0.0 0.0
	CHANNELS 6 Xposition Yposition Zposition Zrotation Xrotation Yrotation 
	JOINT Hips
	{
		OFFSET -17.1583 93.1646 452.98
		CHANNELS 6 Xposition Yposition Zposition Zrotation Xrotation Yrotation 
		JOINT Spine
		{
			OFFSET 15.7357 0.0 0.0
			CHANNELS 6 Xposition Yposition Zposition Zrotation Xrotation Yrotation 
			JOINT Chest
			{
				OFFSET 8.98455 -0.406207 0.0
				CHANNELS 6 Xposition Yposition Zposition Zrotation Xrotation Yrotation 
				JOINT Neck
				{
					OFFSET 16.3773 0.0 0.0
					CHANNELS 6 Xposition Yposition Zposition Zrotation Xrotation Yrotation 
					JOINT Head
					{
						OFFSET 6.45672 0.0 0.0
						CHANNELS 6 Xposition Yposition Zposition Zrotation Xrotation Yrotation 
						End Site
						{
							OFFSET 0.0 0.0 0.0
						}
					}
				}
				JOINT Shoulder_L
				{
					OFFSET 12.9942 -0.242716 4.98039
					CHANNELS 6 Xposition Yposition Zposition Zrotation Xrotation Yrotation 
					JOINT UpperArm_L
					{
						OFFSET 5.34809 0.0 0.0
						CHANNELS 6 Xposition Yposition Zposition Zrotation Xrotation Yrotation 
						JOINT LowerArm_L
						{
							OFFSET 24.3286 1.87007e-05 0.0
							CHANNELS 6 Xposition Yposition Zposition Zrotation Xrotation Yrotation 
							JOINT Hand_L
							{
								OFFSET 22.2916 0.0 0.0
								CHANNELS 6 Xposition Yposition Zposition Zrotation Xrotation Yrotation 
								End Site
								{
									OFFSET 0.0 0.0 0.0
								}
							}
						}
					}
				}
				JOINT Shoulder_R
				{
					OFFSET 12.9945 -0.242716 -4.98039
					CHANNELS 6 Xposition Yposition Zposition Zrotation Xrotation Yrotation 
					JOINT UpperArm_R
					{
						OFFSET -5.34813 0.0 0.0
						CHANNELS 6 Xposition Yposition Zposition Zrotation Xrotation Yrotation 
						JOINT LowerArm_R
						{
							OFFSET -24.3289 0.000322201 0.0
							CHANNELS 6 Xposition Yposition Zposition Zrotation Xrotation Yrotation 
							JOINT Hand_R
							{
								OFFSET -22.2915 -0.000108084 0.0
								CHANNELS 6 Xposition Yposition Zposition Zrotation Xrotation Yrotation 
								End Site
								{
									OFFSET 0.0 0.0 0.0
								}
							}
						}
					}
				}
			}
		}
		JOINT UpperLeg_L
		{
			OFFSET -2.19248 -6.46944 0.0
			CHANNELS 6 Xposition Yposition Zposition Zrotation Xrotation Yrotation 
			JOINT LowerLeg_L
			{
				OFFSET 39.0811 0.0 -1.23785e-05
				CHANNELS 6 Xposition Yposition Zposition Zrotation Xrotation Yrotation 
				JOINT Foot_L
				{
					OFFSET 40.9854 0.0 -1.26872e-05
					CHANNELS 6 Xposition Yposition Zposition Zrotation Xrotation Yrotation 
					JOINT Toes_L
					{
						OFFSET 11.7543 0.0 0.0
						CHANNELS 6 Xposition Yposition Zposition Zrotation Xrotation Yrotation 
						End Site
						{
							OFFSET 0.0 0.0 0.0
						}
					}
				}
			}
		}
		JOINT UpperLeg_R
		{
			OFFSET -2.19251 6.46944 0.0
			CHANNELS 6 Xposition Yposition Zposition Zrotation Xrotation Yrotation 
			JOINT LowerLeg_R
			{
				OFFSET -39.0811 -0.00228153 -0.0401928
				CHANNELS 6 Xposition Yposition Zposition Zrotation Xrotation Yrotation 
				JOINT Foot_R
				{
					OFFSET -40.9854 0.0 0.0
					CHANNELS 6 Xposition Yposition Zposition Zrotation Xrotation Yrotation 
					JOINT Toes_R
					{
						OFFSET -11.7543 0.0 0.0
						CHANNELS 6 Xposition Yposition Zposition Zrotation Xrotation Yrotation 
						End Site
						{
							OFFSET 0.0 0.0 0.0
						}
					}
				}
			}
		}
	}
}
MOTION
Frames:	6
Frame Time:	0.0333333
0.000000 0.000000 0.000000 0.000000 0.000000 -0.000000 -2.283290 92.083600 0.311501 86.476300 1.079620 6.085630 15.735700 0.000005 -0.000001 86.198000 85.988400 -84.579000 8.984550 -0.406207 -0.000000 0.250591 -0.637991 3.237160 16.377300 -0.000001 -0.000001 9.913950 2.064020 -1.959380 6.456720 -0.000001 -0.000000 -5.580750 0.901208 3.576980 12.994200 -0.242716 4.980390 -93.268200 9.269530 -70.480600 5.348090 -0.000007 -0.000001 -72.399600 22.513200 0.287776 24.328600 0.000019 0.000005 12.782600 24.818400 -28.391200 22.291600 -0.000001 0.000005 -8.250040 5.053810 6.153130 12.994500 -0.242716 -4.980390 87.377200 7.289050 -70.147600 -5.348130 -0.000001 -0.000004 -68.726600 33.325500 -5.760450 -24.328900 0.000322 -0.000009 1.215710 4.481180 -15.208000 -22.291500 -0.000108 -0.000004 -2.213360 5.298050 0.127112 -2.192480 -6.469440 -0.000000 -176.379000 2.839140 0.105807 39.081100 -0.000007 -0.000012 0.328854 -0.692333 25.408200 40.985400 -0.000006 -0.000013 1.861230 5.080220 -75.074600 11.754300 -0.000000 0.000003 -0.000821 0.180463 -9.256500 -2.192510 6.469440 -0.000001 -173.808000 9.536090 -173.835000 -39.081100 -0.002282 -0.040193 0.097558 -0.333419 15.781200 -40.985400 0.000008 0.000006 3.289880 2.729800 -71.647400 -11.754300 -0.000006 -0.000006 -0.012292 0.287703 -4.879740
0.000000 0.000000 0.000000 0.000000 0.000000 -0.000000 -2.340000 92.092000 0.288710 86.467000 1.037230 6.013060 15.735700 0.000005 -0.000001 86.384700 85.997200 -84.753900 8.984550 -0.406207 -0.000000 0.234504 -0.611809 3.260750 16.377300 -0.000001 -0.000001 9.810010 2.050460 -2.021950 6.456720 -0.000001 -0.000000 -5.655430 0.813975 3.455950 12.994200 -0.242716 4.980390 -93.305500 9.395890 -70.517200 5.348090 -0.000007 -0.000001 -71.784700 21.575300 0.394906 24.328600 0.000019 0.000005 14.014700 24.459700 -31.082700 22.291600 -0.000001 0.000005 -9.212650 5.053340 6.164320 12.994500 -0.242716 -4.980390 87.397600 7.215810 -70.107100 -5.348130 -0.000001 -0.000004 -68.795900 33.344500 -5.752030 -24.328900 0.000322 -0.000009 1.197690 4.410530 -15.221500 -22.291500 -0.000108 -0.000004 -2.210750 5.297850 0.132742 -2.192480 -6.469440 -0.000000 -176.301000 2.711010 0.031715 39.081100 -0.000007 -0.000012 0.328050 -0.691854 25.369200 40.985400 -0.000006 -0.000013 1.831800 5.155870 -74.991800 11.754300 -0.000000 0.000003 -0.000676 0.178320 -9.343590 -2.192510 6.469440 -0.000001 -173.757000 9.478960 -173.932000 -39.081100 -0.002282 -0.040193 0.094590 -0.323074 15.773900 -40.985400 0.000008 0.000006 3.144060 2.768190 -71.558600 -11.754300 -0.000006 -0.000006 -0.012090 0.286309 -4.936870
0.000000 0.000000 0.000000 0.000000 0.000000 -0.000000 -2.397990 92.113600 0.239682 86.524700 1.065320 5.877000 15.735700 0.000005 -0.000001 86.306200 86.023800 -84.699300 8.984550 -0.406207 -0.000000 0.180671 -0.618517 3.212540 16.377300 -0.000001 -0.000001 9.623580 1.964020 -2.067590 6.456720 -0.000001 -0.000000 -5.822360 0.759406 3.294460 12.994200 -0.242716 4.980390 -93.312300 9.353420 -70.398900 5.348090 -0.000007 -0.000001 -71.080800 20.764300 0.634888 24.328600 0.000019 0.000005 15.440800 23.031600 -35.222000 22.291600 -0.000001 0.000005 -9.707600 5.044320 6.362170 12.994500 -0.242716 -4.980390 87.393800 7.211390 -70.068800 -5.348130 -0.000001 -0.000004 -68.798500 33.349600 -5.683760 -24.328900 0.000322 -0.000009 1.170540 4.279560 -15.325900 -22.291500 -0.000108 -0.000004 -2.284340 5.295440 0.199887 -2.192480 -6.469440 -0.000000 -176.293000 2.666500 -0.089679 39.081100 -0.000007 -0.000012 0.318793 -0.676355 25.237100 40.985400 -0.000006 -0.000013 1.792690 5.219930 -74.868200 11.754300 -0.000000 0.000003 -0.000567 0.176684 -9.410060 -2.192510 6.469440 -0.000001 -173.742000 9.453280 -174.054000 -39.081100 -0.002282 -0.040193 0.093411 -0.321234 15.665000 -40.985400 0.000008 0.000006 3.169050 2.742010 -71.493800 -11.754300 -0.000006 -0.000006 -0.012444 0.288741 -4.837210
0.000000 0.000000 0.000000 0.000000 0.000000 -0.000000 -2.490630 92.135800 0.164345 86.523200 1.181010 5.669340 15.735700 0.000005 -0.000001 85.897900 86.073000 -84.279200 8.984550 -0.406207 -0.000000 0.079379 -0.670203 3.235830 16.377300 -0.000001 -0.000001 9.348840 1.901400 -2.183680 6.456720 -0.000001 -0.000000 -5.910300 0.581570 2.913640 12.994200 -0.242716 4.980390 -93.313300 9.318510 -70.326400 5.348090 -0.000007 -0.000001 -70.327600 19.300900 1.077780 24.328600 0.000019 0.000005 18.276400 21.979100 -41.424700 22.291600 -0.000001 0.000005 -9.788800 5.053270 6.164410 12.994500 -0.242716 -4.980390 87.419800 7.137140 -70.064000 -5.348130 -0.000001 -0.000004 -68.859600 33.168100 -5.653560 -24.328900 0.000322 -0.000009 1.211620 4.426740 -15.336500 -22.291500 -0.000108 -0.000004 -2.265790 5.295610 0.195183 -2.192480 -6.469440 -0.000000 -176.218000 2.702990 -0.338485 39.081100 -0.000007 -0.000012 0.321521 -0.684018 25.176500 40.985400 -0.000006 -0.000013 1.737850 5.305800 -74.837200 11.754300 -0.000000 0.000003 -0.000728 0.179094 -9.312130 -2.192510 6.469440 -0.000001 -173.641000 9.453650 -174.260000 -39.081100 -0.002282 -0.040193 0.089548 -0.310552 15.516300 -40.985400 0.000008 0.000006 3.105690 2.672640 -71.326400 -11.754300 -0.000006 -0.000006 -0.012153 0.286742 -4.919100
0.000000 0.000000 0.000000 0.000000 0.000000 -0.000000 -2.555240 92.155100 0.136424 86.578400 1.198840 5.565620 15.735700 0.000005 -0.000001 86.577100 86.101800 -84.965400 8.984550 -0.406207 -0.000000 0.026631 -0.574162 3.221540 16.377300 -0.000001 -0.000001 9.171570 1.706270 -2.336620 6.456720 -0.000001 -0.000000 -6.228610 0.259972 2.345030 12.994200 -0.242716 4.980390 -93.304600 9.198870 -70.141000 5.348090 -0.000007 -0.000001 -69.568300 17.870200 1.533250 24.328600 0.000019 0.000005 21.814400 20.267800 -49.123300 22.291600 -0.000001 0.000005 -8.683080 5.029560 6.683530 12.994500 -0.242716 -4.980390 87.415800 7.128480 -70.013500 -5.348130 -0.000001 -0.000004 -68.782600 33.174100 -5.576490 -24.328900 0.000322 -0.000009 1.187260 4.319130 -15.399000 -22.291500 -0.000108 -0.000004 -2.253020 5.294940 0.213822 -2.192480 -6.469440 -0.000000 -176.217000 2.698590 -0.401591 39.081100 -0.000007 -0.000012 0.315579 -0.675475 25.042500 40.985400 -0.000006 -0.000013 1.682540 5.317510 -74.772900 11.754300 -0.000000 0.000003 -0.000687 0.178489 -9.336710 -2.192510 6.469440 -0.000001 -173.684000 9.632560 -174.346000 -39.081100 -0.002282 -0.040193 0.086854 -0.302499 15.435600 -40.985400 0.000008 0.000006 3.062910 2.848170 -71.264200 -11.754300 -0.000006 -0.000006 -0.012225 0.287239 -4.898780
0.000000 0.000000 0.000000 0.000000 0.000000 -0.000000 -2.656970 92.176900 0.065905 86.559500 1.271680 5.349760 15.735700 0.000005 -0.000001 86.902300 86.166700 -85.274800 8.984550 -0.406207 -0.000000 -0.101008 -0.525873 3.252520 16.377300 -0.000001 -0.000001 8.888520 1.401780 -2.545720 6.456720 -0.000001 -0.000000 -6.509600 -0.217274 1.551010 12.994200 -0.242716 4.980390 -93.265700 9.003340 -69.967400 5.348090 -0.000007 -0.000001 -68.933300 16.049800 2.080820 24.328600 0.000019 0.000005 26.412500 17.955700 -58.169300 22.291600 -0.000001 0.000005 -7.354860 5.000820 7.301280 12.994500 -0.242716 -4.980390 87.395800 7.171860 -69.982800 -5.348130 -0.000001 -0.000004 -68.643300 33.163500 -5.583370 -24.328900 0.000322 -0.000009 1.187010 4.342420 -15.317200 -22.291500 -0.000108 -0.000004 -2.169400 5.293340 0.258465 -2.192480 -6.469440 -0.000000 -176.123000 2.769570 -0.643485 39.081100 -0.000007 -0.000012 0.315024 -0.676314 24.976600 40.985400 -0.000006 -0.000013 1.605420 5.342930 -74.728100 11.754300 -0.000000 0.000003 -0.000726 0.179059 -9.313570 -2.192510 6.469440 -0.000001 -173.580000 9.703870 -174.544000 -39.081100 -0.002282 -0.040193 0.081992 -0.288019 15.275900 -40.985400 0.000008 0.000006 2.977910 2.872150 -71.124600 -11.754300 -0.000006 -0.000006 -0.012463 0.288872 -4.831850
